# Blender v3.1.2 OBJ File: ''
# www.blender.org
mtllib Player.mtl
o Cube
v -1.601694 -0.500000 0.358224
v -1.611597 0.528010 0.336685
v -1.601694 -0.500000 -0.358224
v -1.611597 0.528010 -0.336685
v 2.001884 -0.500000 0.358224
v 2.001884 0.500000 0.500000
v 2.001884 -0.500000 -0.358224
v 2.001884 0.500000 -0.500000
v -1.711262 -0.515051 0.000000
v -1.711262 -0.000000 0.609568
v -1.711262 0.609568 0.000000
v -1.711262 -0.000000 -0.609568
v 0.168739 -0.550471 -0.467792
v 0.119723 0.729294 -0.462789
v 2.111452 -0.000000 -0.609568
v 2.111452 -0.515051 0.000000
v 2.111452 0.609568 0.000000
v 2.111452 -0.000000 0.609568
v 0.168739 -0.550471 0.467792
v 0.119723 0.729294 0.462789
v -2.457375 0.000000 0.000000
v 0.663318 -0.013990 -1.215820
v 2.341390 0.000000 0.000000
v 0.663318 -0.013990 1.215820
v 0.168739 -0.685892 0.000000
v 0.168739 0.942926 0.000000
v -0.716477 -0.576945 -0.413008
v -0.724202 0.792338 -0.395768
v -0.716477 -0.576945 0.413008
v -0.724202 0.792338 0.395768
v 0.229312 0.055815 -1.696424
v 0.229312 0.055815 1.696424
v -0.771261 -0.652181 0.000000
v -0.771261 0.923989 0.000000
v -0.273869 0.818886 -0.447915
v -0.273869 -0.560015 0.440400
v 0.699312 0.055815 -1.753909
v 0.699312 0.055815 1.753909
v -0.301261 -0.665343 0.000000
v -0.301261 0.985167 0.000000
v -0.273869 -0.560015 -0.440400
v -0.273869 0.818886 0.447915
v -1.159086 -0.564328 -0.385616
v -1.161771 0.698982 0.372212
v -1.161771 0.698982 -0.372212
v -1.159086 -0.564328 0.385616
v -0.240688 0.055815 -1.638939
v -0.240688 0.055815 1.638939
v -1.241261 -0.609471 0.000000
v -1.241261 0.785246 0.000000
v 1.085312 -0.554784 -0.413008
v 1.085312 0.510461 -0.554784
v 1.085312 -0.554784 0.413008
v 1.085312 0.510461 0.554784
v 1.278966 0.000000 -0.963945
v 1.278966 0.000000 0.963945
v 1.140096 -0.630020 0.000000
v 1.140096 0.680215 0.000000
v -1.656478 0.250000 0.554784
v -1.656478 0.250000 -0.554784
v 2.056668 0.250000 -0.554784
v 2.056668 0.250000 0.554784
v -2.084318 0.304784 0.000000
v 0.161838 0.420165 -0.800496
v 2.226421 0.304784 0.000000
v 0.161838 0.420165 0.800496
v -0.750770 0.440789 0.715620
v -0.750770 0.440789 -0.715620
v -0.294466 0.456332 0.758058
v -0.294466 0.456332 -0.758058
v -1.207074 0.386464 -0.673181
v -1.207074 0.386464 0.673181
v 1.129535 0.323831 0.755304
v 1.129535 0.323831 -0.755304
v -1.656478 -0.250000 0.554784
v -1.656478 -0.250000 -0.554784
v 2.056668 -0.250000 -0.554784
v 2.056668 -0.250000 0.554784
v -2.084318 -0.304784 0.000000
v 0.168739 -0.275236 -0.724537
v 2.226421 -0.304784 0.000000
v 0.168739 -0.275236 0.724537
v -0.743869 -0.288473 0.639661
v -0.743869 -0.288473 -0.639660
v -0.287565 -0.280007 0.682099
v -0.287565 -0.280007 -0.682099
v -1.200173 -0.282164 -0.597222
v -1.200173 -0.282164 0.597222
v 1.112704 -0.277392 0.639661
v 1.112704 -0.277392 -0.639661
vt 0.110679 0.390039
vt 0.048179 0.515039
vt 0.048179 0.390039
vt 0.878712 0.416034
vt 0.858162 0.333719
vt 0.926299 0.405697
vt 0.794360 0.387277
vt 0.761399 0.351750
vt 0.110679 0.640039
vt 0.048179 0.640039
vt 0.231593 0.885936
vt 0.294093 0.917186
vt 0.231593 0.917186
vt 0.666690 0.532510
vt 0.705132 0.603922
vt 0.641896 0.595542
vt 0.135140 0.158414
vt 0.151854 0.204161
vt 0.140436 0.211490
vt 0.520388 0.547873
vt 0.426017 0.586924
vt 0.486205 0.504408
vt 0.801873 0.219141
vt 0.759227 0.140726
vt 0.801873 0.137989
vt 0.166995 0.227375
vt 0.192753 0.217144
vt 0.197853 0.229717
vt 0.791500 0.057502
vt 0.319737 0.448454
vt 0.255894 0.379157
vt 0.339660 0.334685
vt 0.832674 0.553390
vt 0.873167 0.507722
vt 0.846072 0.564414
vt 0.924152 0.475068
vt 0.231593 0.885936
vt 0.294093 0.917186
vt 0.231593 0.917186
vt 0.509971 0.332723
vt 0.440191 0.365698
vt 0.458130 0.312328
vt 0.407380 0.561454
vt 0.404789 0.471023
vt 0.450379 0.482528
vt 0.348102 0.541529
vt 0.361505 0.452655
vt 0.404495 0.297270
vt 0.788554 0.475394
vt 0.799411 0.542097
vt 0.765724 0.532135
vt 0.160156 0.722656
vt 0.128906 0.847656
vt 0.128906 0.722656
vt 0.160156 0.972656
vt 0.128906 0.972656
vt 0.846735 0.493907
vt 0.066406 0.847656
vt 0.097656 0.972656
vt 0.066406 0.972656
vt 0.097656 0.722656
vt 0.066406 0.722656
vt 0.476147 0.258726
vt 0.448704 0.200172
vt 0.493560 0.206923
vt 0.533386 0.228636
vt 0.231593 0.823436
vt 0.294093 0.854686
vt 0.231593 0.854686
vt 0.902008 0.607180
vt 0.849643 0.533024
vt 0.914690 0.541269
vt 0.772680 0.446730
vt 0.693838 0.471269
vt 0.723524 0.411030
vt 0.294093 0.823436
vt 0.231593 0.854686
vt 0.231593 0.823436
vt 0.829515 0.643502
vt 0.886025 0.673036
vt 0.294093 0.792186
vt 0.231593 0.792186
vt 0.035156 0.847656
vt 0.035156 0.722656
vt 0.035156 0.972656
vt 0.426823 0.247783
vt 0.522067 0.279797
vt 0.752167 0.501758
vt 0.294093 0.854686
vt 0.294093 0.792186
vt 0.231593 0.792186
vt 0.543186 0.181053
vt 0.511011 0.155005
vt 0.469635 0.156330
vt 0.097656 0.847656
vt 0.294093 0.885936
vt 0.864384 0.476695
vt 0.186130 0.167098
vt 0.171906 0.211905
vt 0.384240 0.347750
vt 0.495624 0.385189
vt 0.232791 0.189414
vt 0.317865 0.550571
vt 0.266241 0.462448
vt 0.578942 0.487742
vt 0.539044 0.401703
vt 0.758975 0.471474
vt 0.748421 0.533414
vt 0.102334 0.125237
vt 0.111330 0.167532
vt 0.246983 0.210593
vt 0.203075 0.244432
vt 0.356593 0.854686
vt 0.356593 0.823436
vt 0.356593 0.885936
vt 0.294093 0.885936
vt 0.356593 0.792186
vt 0.294093 0.823436
vt 0.356593 0.854686
vt 0.356593 0.823436
vt 0.356593 0.885936
vt 0.278725 0.181227
vt 0.716581 0.062310
vt 0.753695 0.054519
vt 0.726954 0.223949
vt 0.764760 0.226932
vt 0.127683 0.220499
vt 0.356593 0.917186
vt 0.173179 0.515039
vt 0.110679 0.515039
vt 0.385586 0.226901
vt 0.576691 0.229874
vt 0.567545 0.288062
vt 0.361182 0.280344
vt 0.413443 0.175002
vt 0.368115 0.580129
vt 0.375613 0.557822
vt 0.554715 0.345395
vt 0.526567 0.108725
vt 0.838186 0.394107
vt 0.728932 0.556023
vt 0.152443 0.157135
vt 0.436162 0.615147
vt 0.817105 0.486388
vt 0.160156 0.847656
vt 0.837626 0.590830
vt 0.219393 0.178390
vt 0.292732 0.566937
vt 0.145694 0.096474
vt 0.356593 0.792186
vt 0.356593 0.917186
vt 0.259886 0.132722
vt 0.716581 0.143462
vt 0.173179 0.640039
vt 0.173179 0.390039
vt 0.578942 0.172337
vt 0.446402 0.127787
vn -0.7425 -0.2945 0.6017
vn -0.6431 0.5343 0.5487
vn -0.6431 0.5343 -0.5487
vn -0.7425 -0.2945 -0.6017
vn -0.0373 -0.8663 -0.4982
vn -0.0044 0.7373 -0.6755
vn 0.2238 0.2552 -0.9406
vn 0.0787 -0.7771 -0.6244
vn 0.8908 -0.3360 -0.3058
vn 0.9137 0.2673 -0.3060
vn 0.9137 0.2673 0.3060
vn 0.8908 -0.3360 0.3058
vn 0.0375 -0.8975 0.4395
vn 0.1047 0.7394 0.6651
vn -0.3698 0.6097 0.7011
vn -0.1064 -0.2350 0.9661
vn -0.0425 -0.9711 -0.2349
vn 0.0698 -0.9797 -0.1877
vn 0.0698 -0.9797 0.1877
vn -0.0425 -0.9711 0.2349
vn 0.1829 0.9349 -0.3041
vn -0.3602 0.8889 -0.2829
vn -0.3602 0.8889 0.2829
vn 0.1829 0.9349 0.3041
vn -0.0956 0.9313 0.3516
vn -0.0956 0.9313 -0.3516
vn -0.0897 -0.9868 0.1346
vn -0.0897 -0.9868 -0.1346
vn -0.0122 -0.9474 0.3199
vn -0.0911 0.6739 0.7331
vn -0.1482 0.6971 -0.7015
vn -0.0451 -0.9373 -0.3456
vn -0.0044 0.7373 0.6755
vn -0.0373 -0.8663 0.4982
vn 0.1852 0.8846 -0.4280
vn 0.1852 0.8846 0.4280
vn -0.0275 -0.9828 0.1827
vn -0.0275 -0.9828 -0.1827
vn -0.0911 0.6739 -0.7331
vn -0.0122 -0.9474 -0.3199
vn -0.1064 -0.2350 -0.9661
vn -0.3698 0.6097 -0.7011
vn -0.1960 -0.9754 -0.1009
vn -0.1960 -0.9754 0.1009
vn -0.2139 0.9190 0.3311
vn -0.2139 0.9190 -0.3311
vn -0.0451 -0.9373 0.3456
vn -0.1482 0.6971 0.7015
vn 0.0706 0.9710 0.2283
vn 0.0706 0.9710 -0.2283
vn 0.0121 -0.9605 0.2781
vn 0.0121 -0.9605 -0.2781
vn 0.2238 0.2552 0.9406
vn 0.0787 -0.7771 0.6244
vn 0.0375 -0.8975 -0.4395
vn 0.1047 0.7394 -0.6651
vn 0.2884 0.6091 -0.7388
vn 0.3764 0.2763 0.8843
vn -0.0499 0.9118 0.4077
vn -0.4974 0.5368 -0.6815
vn -0.0509 0.9080 -0.4159
vn 0.7108 0.6899 -0.1370
vn -0.0499 0.9118 -0.4077
vn -0.0509 0.9080 0.4159
vn -0.4974 0.5368 0.6815
vn 0.2884 0.6091 0.7388
vn 0.9004 0.2717 0.3397
vn 0.9004 0.2717 -0.3397
vn 0.3764 0.2763 -0.8843
vn 0.7108 0.6899 0.1370
vn -0.5002 0.6123 -0.6123
vn -0.5002 0.6123 0.6123
vn 0.0431 -0.6347 -0.7716
vn 0.0839 -0.6355 0.7676
vn -0.0661 -0.6203 0.7816
vn -0.1367 -0.6070 -0.7829
vn -0.0249 -0.6191 -0.7849
vn -0.0327 -0.6540 0.7558
vn -0.0661 -0.6203 -0.7816
vn -0.0249 -0.6191 0.7849
vn -0.1367 -0.6070 0.7829
vn 0.0431 -0.6347 0.7716
vn 0.8430 -0.4609 0.2772
vn 0.8430 -0.4609 -0.2772
vn 0.0839 -0.6355 -0.7676
vn -0.0327 -0.6540 -0.7558
vn -0.4827 -0.8563 -0.1836
vn -0.4827 -0.8563 0.1836
vn -0.5002 -0.6123 0.6123
vn -0.5924 0.7251 0.3510
vn -0.5924 0.7251 -0.3510
vn -0.5002 -0.6123 -0.6123
vn 0.2089 -0.9715 -0.1121
vn 0.1174 0.6417 -0.7579
vn 0.0487 0.7365 -0.6747
vn 0.3764 -0.2763 -0.8843
vn 0.9004 -0.2717 -0.3397
vn 0.9004 0.3397 -0.2717
vn 0.9004 0.3397 0.2717
vn 0.9004 -0.2717 0.3397
vn 0.2450 -0.7952 0.5546
vn 0.1044 0.7400 0.6644
vn -0.3115 0.6822 0.6615
vn -0.3815 -0.7166 0.5839
vn 0.0035 -0.9606 -0.2781
vn 0.1172 -0.9901 -0.0774
vn 0.1172 -0.9901 0.0774
vn 0.0035 -0.9606 0.2781
vn 0.2360 0.8725 -0.4278
vn -0.3324 0.8894 -0.3138
vn -0.3324 0.8894 0.3138
vn 0.2360 0.8725 0.4278
vn -0.1220 0.9374 0.3263
vn -0.1220 0.9374 -0.3263
vn -0.0394 -0.9821 0.1841
vn -0.0394 -0.9821 -0.1841
vn -0.0407 -0.9422 0.3327
vn -0.1252 0.6490 0.7504
vn -0.1816 0.6693 -0.7205
vn -0.0421 -0.9379 -0.3443
vn 0.1174 0.6417 0.7579
vn 0.2089 -0.9715 0.1121
vn 0.0841 0.9358 -0.3423
vn 0.0841 0.9358 0.3423
vn 0.0229 -0.9726 0.2312
vn 0.0229 -0.9726 -0.2312
vn -0.1252 0.6490 -0.7504
vn -0.0407 -0.9422 -0.3327
vn -0.3815 -0.7166 -0.5839
vn -0.3115 0.6822 -0.6615
vn -0.1512 -0.9776 -0.1467
vn -0.1512 -0.9776 0.1467
vn -0.2724 0.9229 0.2721
vn -0.2724 0.9229 -0.2721
vn -0.0421 -0.9379 0.3443
vn -0.1816 0.6693 0.7205
vn 0.0285 0.9551 0.2950
vn 0.0285 0.9551 -0.2950
vn 0.0564 -0.9809 0.1862
vn 0.0564 -0.9809 -0.1862
vn 0.0487 0.7365 0.6747
vn 0.3764 -0.2763 0.8843
vn 0.2450 -0.7952 -0.5546
vn 0.1044 0.7400 -0.6644
vn 0.1051 0.7481 -0.6552
vn 0.2147 0.5971 0.7729
vn -0.1467 0.8816 0.4486
vn -0.3210 0.2693 -0.9080
vn -0.0702 0.9027 -0.4245
vn 0.0434 0.9412 0.3352
vn -0.1467 0.8816 -0.4486
vn -0.0702 0.9027 0.4245
vn -0.3210 0.2693 0.9080
vn 0.1051 0.7481 0.6552
vn 0.8908 0.3360 0.3058
vn 0.8908 0.3360 -0.3058
vn 0.2147 0.5971 -0.7729
vn 0.0434 0.9412 -0.3352
vn -0.7425 0.2945 -0.6017
vn -0.7425 0.2945 0.6017
vn 0.0641 -0.6807 -0.7297
vn 0.0878 -0.6275 0.7736
vn -0.0820 -0.6056 0.7916
vn -0.1158 -0.6295 -0.7683
vn -0.0580 -0.6539 -0.7543
vn -0.0608 -0.6809 0.7299
vn -0.0820 -0.6056 -0.7916
vn -0.0580 -0.6539 0.7543
vn -0.1158 -0.6295 0.7683
vn 0.0641 -0.6807 0.7297
vn 0.8529 -0.4251 0.3030
vn 0.8529 -0.4251 -0.3030
vn 0.0878 -0.6275 -0.7736
vn -0.0608 -0.6809 -0.7299
vn -0.6275 -0.5616 -0.5394
vn -0.6275 -0.5616 0.5394
usemtl Material.001
s off
f 10/1/1 79/2/1 75/3/1
f 2/4/2 63/5/2 59/6/2
f 63/5/3 4/7/3 60/8/3
f 79/2/4 12/9/4 76/10/4
f 86/11/5 22/12/5 80/13/5
f 70/14/6 14/15/6 64/16/6
f 74/17/7 8/18/7 61/19/7
f 55/20/8 77/21/8 90/22/8
f 77/23/9 23/24/9 81/25/9
f 8/18/10 65/26/10 61/19/10
f 65/26/11 6/27/11 62/28/11
f 23/24/12 78/29/12 81/25/12
f 89/30/13 24/31/13 82/32/13
f 54/33/14 66/34/14 73/35/14
f 72/36/15 2/4/15 59/6/15
f 88/37/16 10/38/16 75/39/16
f 41/40/17 25/41/17 39/42/17
f 7/43/18 57/44/18 51/45/18
f 57/44/19 5/46/19 53/47/19
f 25/41/20 36/48/20 39/42/20
f 14/49/21 58/50/21 52/51/21
f 4/52/22 50/53/22 45/54/22
f 50/53/23 2/55/23 44/56/23
f 58/50/24 20/57/24 54/33/24
f 40/58/25 30/59/25 42/60/25
f 28/61/26 40/58/26 35/62/26
f 33/63/27 46/64/27 49/65/27
f 43/66/28 33/63/28 49/65/28
f 85/67/29 32/68/29 83/69/29
f 69/70/30 30/71/30 67/72/30
f 45/73/31 68/74/31 71/75/31
f 47/76/32 84/77/32 87/78/32
f 20/79/33 69/70/33 66/80/33
f 24/81/34 85/67/34 82/82/34
f 35/62/35 26/83/35 14/84/35
f 26/83/36 42/60/36 20/85/36
f 39/42/37 29/86/37 33/63/37
f 27/87/38 39/42/38 33/63/38
f 28/88/39 70/14/39 68/74/39
f 31/89/40 86/11/40 84/77/40
f 12/90/41 87/78/41 76/91/41
f 4/7/42 71/75/42 60/8/42
f 3/92/43 49/65/43 9/93/43
f 49/65/44 1/94/44 9/93/44
f 34/95/45 44/56/45 30/59/45
f 45/54/46 34/95/46 28/61/46
f 83/69/47 48/96/47 88/37/47
f 67/72/48 44/97/48 72/36/48
f 58/98/49 6/27/49 17/99/49
f 8/18/50 58/98/50 17/99/50
f 25/41/51 53/47/51 19/100/51
f 51/45/52 25/41/52 13/101/52
f 6/27/53 73/102/53 62/28/53
f 78/103/54 56/104/54 89/30/54
f 22/105/55 90/22/55 80/106/55
f 64/107/56 52/51/56 74/108/56
f 22/109/57 74/17/57 55/110/57
f 62/28/58 56/111/58 18/112/58
f 67/113/59 48/96/59 32/68/59
f 12/90/60 71/114/60 47/76/60
f 31/89/61 70/115/61 37/116/61
f 66/117/62 38/118/62 24/81/62
f 47/76/63 68/119/63 31/89/63
f 69/120/64 32/68/64 38/118/64
f 72/121/65 10/38/65 48/96/65
f 73/102/66 24/122/66 56/111/66
f 23/24/67 62/123/67 18/124/67
f 61/125/68 23/24/68 15/126/68
f 55/110/69 61/19/69 15/127/69
f 37/116/70 64/128/70 22/12/70
f 63/129/71 12/9/71 21/130/71
f 10/1/72 63/129/72 21/130/72
f 13/101/73 90/22/73 51/45/73
f 5/46/74 89/30/74 53/47/74
f 83/131/75 46/64/75 29/86/75
f 3/92/76 87/132/76 43/66/76
f 84/133/77 41/40/77 27/87/77
f 19/100/78 85/134/78 36/48/78
f 43/66/79 84/133/79 27/87/79
f 36/48/80 83/131/80 29/86/80
f 88/135/81 1/94/81 46/64/81
f 89/30/82 19/100/82 53/47/82
f 81/136/83 5/46/83 16/137/83
f 7/43/84 81/136/84 16/137/84
f 90/22/85 7/43/85 51/45/85
f 86/138/86 13/101/86 41/40/86
f 79/139/87 3/92/87 9/93/87
f 1/94/88 79/139/88 9/93/88
f 10/1/89 21/130/89 79/2/89
f 2/4/90 11/140/90 63/5/90
f 63/5/91 11/140/91 4/7/91
f 79/2/92 21/130/92 12/9/92
f 86/11/93 37/116/93 22/12/93
f 70/14/94 35/141/94 14/15/94
f 74/17/95 52/142/95 8/18/95
f 55/20/96 15/143/96 77/21/96
f 77/23/97 15/126/97 23/24/97
f 8/18/98 17/99/98 65/26/98
f 65/26/99 17/99/99 6/27/99
f 23/24/100 18/124/100 78/29/100
f 89/30/101 56/104/101 24/31/101
f 54/33/102 20/57/102 66/34/102
f 72/36/103 44/97/103 2/4/103
f 88/37/104 48/96/104 10/38/104
f 41/40/105 13/101/105 25/41/105
f 7/43/106 16/137/106 57/44/106
f 57/44/107 16/137/107 5/46/107
f 25/41/108 19/100/108 36/48/108
f 14/49/109 26/144/109 58/50/109
f 4/52/110 11/145/110 50/53/110
f 50/53/111 11/145/111 2/55/111
f 58/50/112 26/144/112 20/57/112
f 40/58/113 34/95/113 30/59/113
f 28/61/114 34/95/114 40/58/114
f 33/63/115 29/86/115 46/64/115
f 43/66/116 27/87/116 33/63/116
f 85/67/117 38/118/117 32/68/117
f 69/70/118 42/146/118 30/71/118
f 45/73/119 28/88/119 68/74/119
f 47/76/120 31/89/120 84/77/120
f 20/79/121 42/146/121 69/70/121
f 24/81/122 38/118/122 85/67/122
f 35/62/123 40/58/123 26/83/123
f 26/83/124 40/58/124 42/60/124
f 39/42/125 36/48/125 29/86/125
f 27/87/126 41/40/126 39/42/126
f 28/88/127 35/141/127 70/14/127
f 31/89/128 37/116/128 86/11/128
f 12/90/129 47/76/129 87/78/129
f 4/7/130 45/73/130 71/75/130
f 3/92/131 43/66/131 49/65/131
f 49/65/132 46/64/132 1/94/132
f 34/95/133 50/53/133 44/56/133
f 45/54/134 50/53/134 34/95/134
f 83/69/135 32/68/135 48/96/135
f 67/72/136 30/71/136 44/97/136
f 58/98/137 54/147/137 6/27/137
f 8/18/138 52/142/138 58/98/138
f 25/41/139 57/44/139 53/47/139
f 51/45/140 57/44/140 25/41/140
f 6/27/141 54/147/141 73/102/141
f 78/103/142 18/148/142 56/104/142
f 22/105/143 55/20/143 90/22/143
f 64/107/144 14/49/144 52/51/144
f 22/109/145 64/149/145 74/17/145
f 62/28/146 73/102/146 56/111/146
f 67/113/147 72/121/147 48/96/147
f 12/90/148 60/150/148 71/114/148
f 31/89/149 68/119/149 70/115/149
f 66/117/150 69/120/150 38/118/150
f 47/76/151 71/114/151 68/119/151
f 69/120/152 67/113/152 32/68/152
f 72/121/153 59/151/153 10/38/153
f 73/102/154 66/152/154 24/122/154
f 23/24/155 65/153/155 62/123/155
f 61/125/156 65/153/156 23/24/156
f 55/110/157 74/17/157 61/19/157
f 37/116/158 70/115/158 64/128/158
f 63/129/159 60/154/159 12/9/159
f 10/1/160 59/155/160 63/129/160
f 13/101/161 80/106/161 90/22/161
f 5/46/162 78/103/162 89/30/162
f 83/131/163 88/135/163 46/64/163
f 3/92/164 76/156/164 87/132/164
f 84/133/165 86/138/165 41/40/165
f 19/100/166 82/32/166 85/134/166
f 43/66/167 87/132/167 84/133/167
f 36/48/168 85/134/168 83/131/168
f 88/135/169 75/157/169 1/94/169
f 89/30/170 82/32/170 19/100/170
f 81/136/171 78/103/171 5/46/171
f 7/43/172 77/21/172 81/136/172
f 90/22/173 77/21/173 7/43/173
f 86/138/174 80/106/174 13/101/174
f 79/139/175 76/156/175 3/92/175
f 1/94/176 75/157/176 79/139/176
