# Blender 3.5.1
# www.blender.org
mtllib billbord.mtl
o Plane
v 1.000000 1.000000 -0.000000
v 1.000000 -1.000000 -0.000000
v -1.000000 1.000000 0.000000
v -1.000000 -1.000000 0.000000
v -0.000000 0.772119 0.000000
v 0.000000 -1.000000 0.000000
vn -0.0000 -0.0000 -1.0000
vt 0.000000 0.000000
vt 1.000000 0.000000
vt 0.000000 1.000000
vt 1.000000 1.000000
vt 0.000000 0.500000
vt 1.000000 0.500000
s 0
usemtl Material.001
f 2/2/1 5/5/1 1/1/1
f 2/2/1 6/6/1 5/5/1
f 4/4/1 5/5/1 6/6/1
f 4/4/1 3/3/1 5/5/1
