# Blender v3.1.2 OBJ File: ''
# www.blender.org
mtllib planet.mtl
o Cube_Cube.003
v -0.516278 -0.512327 0.513261
v -0.422581 0.431048 0.437315
v -0.461499 -0.462048 -0.475315
v -0.459841 0.467352 -0.483550
v 0.526929 -0.526929 0.526929
v 0.508198 0.509226 0.509288
v 0.500000 -0.500000 -0.500000
v 0.538044 0.538044 -0.538044
v -0.507631 -0.511268 -0.277085
v -0.498726 -0.511076 0.003115
v -0.564870 -0.566871 0.294474
v -0.542223 -0.293667 0.551458
v -0.563320 -0.004329 0.554711
v -0.524501 0.274419 0.512008
v -0.391375 0.394315 0.234739
v -0.388801 0.389524 -0.012780
v -0.401567 0.410020 -0.265581
v -0.470349 0.256398 -0.517514
v -0.490542 -0.017395 -0.547117
v -0.482558 -0.276827 -0.532443
v 0.321608 -0.618618 -0.608317
v 0.005990 -0.682294 -0.682294
v -0.304228 -0.589040 -0.589040
v -0.297327 0.573371 -0.572968
v -0.000000 0.609568 -0.609568
v 0.307982 0.602110 -0.599212
v 0.698300 0.359474 -0.696726
v 0.643276 -0.000000 -0.643276
v 0.617979 -0.319784 -0.615732
v 0.561387 -0.560491 0.293346
v 0.556876 -0.542174 -0.000005
v 0.572933 -0.572933 -0.296650
v 0.484607 0.456862 -0.292509
v 0.482380 0.436392 -0.005526
v 0.508562 0.485119 0.281186
v 0.598021 0.308455 0.598023
v 0.609568 -0.000000 0.609568
v 0.592090 -0.310378 0.592197
v -0.287773 -0.535228 0.542320
v -0.001012 -0.576400 0.583389
v 0.301084 -0.582076 0.582240
v 0.323319 0.628519 0.628519
v -0.000000 0.609568 0.609568
v -0.278319 0.545912 0.535075
v -0.584754 -0.286485 0.274497
v -0.597341 -0.013668 0.267899
v -0.516317 0.218817 0.253209
v -0.631123 -0.283367 -0.004657
v -0.686579 -0.013245 -0.014714
v -0.541030 0.216861 -0.011502
v -0.630416 -0.279553 -0.294874
v -0.580990 -0.023047 -0.283657
v -0.501242 0.214951 -0.270988
v -0.406907 -0.379321 -0.864681
v -0.394246 0.005957 -0.855262
v -0.359823 0.343290 -0.772917
v -0.000940 -0.420043 -0.957549
v -0.022388 -0.007353 -1.102150
v -0.026221 0.451352 -0.983781
v 0.334756 -0.334756 -0.777660
v 0.434521 -0.039413 -1.021103
v 0.373727 0.399861 -0.903312
v 0.678179 -0.307288 -0.306789
v 0.722516 -0.007240 -0.322985
v 0.644501 0.267683 -0.330298
v 0.781593 -0.333025 0.000000
v 0.739002 -0.020025 0.000313
v 0.634764 0.245773 -0.008817
v 0.728990 -0.316157 0.316157
v 0.781829 0.000000 0.333140
v 0.673173 0.299041 0.300243
v 0.384715 -0.399607 0.859106
v 0.383437 -0.000000 0.913845
v 0.360070 0.360070 0.843900
v -0.004674 -0.384771 0.890659
v -0.013900 -0.001007 1.041144
v -0.008657 0.349140 0.842629
v -0.373519 -0.366075 0.827205
v -0.326904 0.004612 0.770093
v -0.286664 0.291621 0.629923
v -0.316157 -0.728990 -0.316157
v -0.000000 -0.781829 -0.333140
v 0.316157 -0.728990 -0.316157
v -0.290869 -0.682370 -0.000281
v 0.001822 -0.732993 -0.000075
v 0.297992 -0.684095 -0.000020
v -0.316157 -0.728990 0.316157
v 0.000000 -0.781829 0.333140
v 0.289014 -0.649856 0.299854
v 0.264292 0.570591 -0.297169
v 0.003924 0.700457 -0.308887
v -0.225929 0.552046 -0.289641
v 0.263356 0.539556 -0.002146
v 0.022354 0.582155 -0.007364
v -0.202614 0.511390 -0.011266
v 0.282757 0.566208 0.301253
v 0.022905 0.570349 0.292131
v -0.211349 0.504717 0.262825
vt 0.413488 0.531554
vt 0.487906 0.534541
vt 0.472863 0.603302
vt 0.401960 0.603321
vt 0.557664 0.548436
vt 0.546929 0.617857
vt 0.468780 0.686267
vt 0.393828 0.682539
vt 0.540708 0.692295
vt 0.363230 0.470793
vt 0.423048 0.459308
vt 0.337730 0.525514
vt 0.502342 0.458250
vt 0.581318 0.475313
vt 0.629584 0.509021
vt 0.612991 0.566760
vt 0.605339 0.633771
vt 0.601692 0.701938
vt 0.607164 0.755900
vt 0.545437 0.763106
vt 0.468113 0.766465
vt 0.397166 0.760934
vt 0.745121 0.694647
vt 0.674078 0.703045
vt 0.683597 0.623682
vt 0.728810 0.636762
vt 0.768723 0.768387
vt 0.697400 0.780547
vt 0.789743 0.853274
vt 0.728826 0.849904
vt 0.067948 0.532037
vt 0.175450 0.528481
vt 0.154057 0.619879
vt 0.051126 0.642096
vt 0.471307 0.859492
vt 0.570025 0.843325
vt 0.616263 0.932328
vt 0.485448 0.960955
vt 0.153422 0.753726
vt 0.090199 0.744923
vt 0.290332 0.616237
vt 0.284031 0.734389
vt 0.692555 0.526978
vt 0.775519 0.589488
vt 0.363240 0.857549
vt 0.644503 0.796488
vt 0.674078 0.834157
vt 0.250607 0.000000
vt 0.258326 0.107713
vt 0.172608 0.112728
vt 0.136423 0.025830
vt 0.104298 0.131895
vt 0.044796 0.087440
vt 0.290332 0.838049
vt 0.194705 0.832630
vt 0.108174 0.833368
vt 0.024737 0.756204
vt 0.066795 0.810095
vt 0.000000 0.664456
vt 0.771993 0.458250
vt 0.846778 0.531072
vt 0.498680 0.377724
vt 0.419509 0.373044
vt 0.417565 0.286260
vt 0.486331 0.302731
vt 0.365542 0.357514
vt 0.369929 0.269581
vt 0.403503 0.197530
vt 0.488141 0.211319
vt 0.008080 0.288570
vt 0.057887 0.285040
vt 0.053504 0.374173
vt 0.000000 0.384597
vt 0.574572 0.424946
vt 0.513475 0.458250
vt 0.579167 0.377914
vt 0.432623 0.454381
vt 0.337730 0.458250
vt 0.114267 0.202255
vt 0.054819 0.192589
vt 0.115145 0.284828
vt 0.113639 0.367454
vt 0.117143 0.433061
vt 0.076991 0.459347
vt 0.348726 0.185632
vt 0.356013 0.097824
vt 0.428469 0.108454
vt 0.506165 0.124843
vt 0.573532 0.214823
vt 0.569092 0.146744
vt 0.572037 0.294095
vt 0.735498 0.301110
vt 0.719770 0.191275
vt 0.788820 0.206207
vt 0.819054 0.306341
vt 0.731350 0.086430
vt 0.816277 0.096781
vt 0.907436 0.196487
vt 0.914294 0.305040
vt 0.917159 0.108068
vt 0.558227 0.039390
vt 0.617434 0.116422
vt 0.461685 0.007578
vt 0.379083 0.009879
vt 0.178507 0.466051
vt 0.148512 0.528481
vt 0.772692 0.000000
vt 0.850403 0.010774
vt 0.928118 0.030369
vt 0.980278 0.059742
vt 0.994006 0.110233
vt 1.000000 0.192206
vt 1.000000 0.273684
vt 0.856547 0.889307
vt 0.828729 0.974426
vt 0.759826 0.919818
vt 0.805527 0.906364
vt 0.923425 0.869181
vt 0.908842 0.951383
vt 0.615560 0.000000
vt 0.663469 0.092515
vt 0.822255 0.663634
vt 0.892630 0.624880
vt 0.909365 0.713447
vt 0.842631 0.745077
vt 0.719769 0.352328
vt 0.657256 0.369922
vt 0.646903 0.280007
vt 0.705199 0.259156
vt 0.944741 0.802518
vt 0.871710 0.832217
vt 0.637798 0.195706
vt 0.714745 0.169746
vt 0.901098 0.516544
vt 0.944741 0.595107
vt 0.631997 0.445789
vt 0.184181 0.199370
vt 0.266405 0.194177
vt 0.253923 0.281149
vt 0.183919 0.284273
vt 0.318372 0.198321
vt 0.310531 0.278602
vt 0.254801 0.367333
vt 0.182651 0.371673
vt 0.314317 0.357393
vt 0.337730 0.116329
vt 0.733051 0.310494
vt 0.777368 0.306341
vt 0.777368 0.365369
vt 0.719769 0.376988
vt 0.652780 0.725643
vt 0.652123 0.651593
vt 0.658655 0.576048
vt 0.674078 0.496062
vt 0.337730 0.435267
vt 0.266322 0.458484
vn -0.9659 -0.1139 0.2324
vn -0.8812 0.4361 0.1822
vn -0.9824 -0.0108 -0.1866
vn -0.8694 0.4269 -0.2487
vn -0.9772 -0.0966 0.1889
vn -0.9892 -0.0585 0.1345
vn -0.9730 0.2302 0.0187
vn -0.8352 0.5212 -0.1756
vn -0.7814 0.6235 0.0256
vn -0.8247 0.5652 -0.0230
vn -0.9619 0.2504 0.1099
vn -0.9565 0.2040 -0.2087
vn -0.9013 0.0695 -0.4275
vn -0.8346 -0.3625 -0.4147
vn -0.8744 -0.4851 0.0095
vn -0.9550 -0.2897 -0.0630
vn -0.4045 -0.1571 -0.9010
vn -0.5515 0.2238 -0.8036
vn 0.3028 -0.4836 -0.8212
vn 0.2034 0.2627 -0.9432
vn -0.8640 -0.4541 -0.2176
vn -0.9656 0.0049 -0.2599
vn -0.9379 0.1418 -0.3165
vn -0.8180 0.3693 -0.4411
vn -0.3702 0.7950 -0.4805
vn 0.1321 0.8785 -0.4591
vn 0.3777 0.7970 -0.4714
vn 0.7374 0.0595 -0.6728
vn 0.6962 -0.4032 -0.5939
vn 0.5352 -0.5468 -0.6439
vn 0.4076 -0.5793 -0.7059
vn -0.2937 -0.7540 -0.5875
vn 0.9823 -0.0077 -0.1874
vn 0.9475 0.3196 0.0073
vn 0.9997 -0.0167 0.0160
vn 0.9281 0.3382 -0.1561
vn 0.8272 -0.4912 -0.2729
vn 0.9690 -0.1239 -0.2137
vn 0.9989 0.0331 -0.0322
vn 0.7931 0.5354 0.2903
vn 0.7742 0.6302 0.0591
vn 0.7552 0.6276 -0.1893
vn 0.8220 0.5635 0.0821
vn 0.8999 0.2062 0.3844
vn 0.8654 -0.1237 0.4856
vn 0.8223 -0.4751 0.3132
vn 0.7536 -0.6548 0.0579
vn 0.8148 -0.5686 -0.1132
vn 0.1876 -0.2466 0.9508
vn 0.1465 0.3530 0.9241
vn -0.4413 -0.0887 0.8930
vn -0.5993 0.4087 0.6883
vn 0.5834 -0.6430 0.4962
vn 0.8000 -0.0787 0.5949
vn 0.7645 0.1172 0.6339
vn 0.6682 0.5231 0.5290
vn -0.0501 0.6444 0.7631
vn -0.4825 0.4819 0.7314
vn -0.5519 0.4403 0.7082
vn -0.5557 0.3250 0.7652
vn -0.7636 0.0818 0.6405
vn -0.5667 -0.6176 0.5454
vn -0.1571 -0.8537 0.4964
vn 0.0005 -0.8421 0.5393
vn -0.1616 -0.9754 0.1502
vn 0.1582 -0.9767 0.1450
vn -0.1615 -0.9754 -0.1501
vn 0.2944 -0.9555 -0.0170
vn -0.7328 -0.5954 -0.3294
vn -0.2710 -0.8957 -0.3526
vn 0.2146 -0.9294 -0.3004
vn 0.5714 -0.7414 -0.3521
vn 0.4920 -0.8602 0.1337
vn 0.3993 -0.9164 0.0276
vn 0.2956 -0.9349 0.1964
vn 0.2120 -0.8713 0.4425
vn -0.1782 -0.7492 0.6380
vn -0.3586 -0.7874 0.5014
vn -0.5697 -0.7921 -0.2192
vn -0.6893 -0.7181 0.0959
vn 0.3104 0.9242 0.2223
vn -0.4108 0.8713 0.2684
vn 0.0937 0.9952 -0.0276
vn -0.2864 0.9577 0.0268
vn 0.3247 0.9134 0.2456
vn 0.2370 0.9682 -0.0797
vn -0.3362 0.9393 -0.0685
vn -0.5125 0.8181 0.2609
vn -0.5787 0.8048 0.1320
vn -0.5351 0.8448 -0.0086
vn -0.4898 0.8385 -0.2389
vn -0.2100 0.9639 -0.1635
vn -0.0176 0.9877 -0.1551
vn 0.3853 0.9072 -0.1690
vn 0.3720 0.9167 -0.1458
vn 0.4410 0.8938 0.0815
usemtl Material.001
s off
f 45/1/1 46/2/1 49/3/1 48/4/1
f 46/2/2 47/5/2 50/6/2 49/3/2
f 48/4/3 49/3/3 52/7/3 51/8/3
f 49/3/4 50/6/4 53/9/4 52/7/4
f 1/10/5 12/11/5 45/1/5 11/12/5
f 12/11/6 13/13/6 46/2/6 45/1/6
f 13/13/7 14/14/7 47/5/7 46/2/7
f 14/14/8 2/15/8 15/16/8 47/5/8
f 47/5/9 15/16/9 16/17/9 50/6/9
f 50/6/10 16/17/10 17/18/10 53/9/10
f 53/9/11 17/18/11 4/19/11 18/20/11
f 52/7/12 53/9/12 18/20/12 19/21/12
f 51/8/13 52/7/13 19/21/13 20/22/13
f 9/23/14 51/24/14 20/25/14 3/26/14
f 10/27/15 48/28/15 51/24/15 9/23/15
f 11/29/16 45/30/16 48/28/16 10/27/16
f 54/31/17 55/32/17 58/33/17 57/34/17
f 55/35/18 56/36/18 59/37/18 58/38/18
f 57/34/19 58/33/19 61/39/19 60/40/19
f 58/33/20 59/41/20 62/42/20 61/39/20
f 3/26/21 20/25/21 54/43/21 23/44/21
f 20/22/22 19/21/22 55/35/22 54/45/22
f 19/21/23 18/20/23 56/36/23 55/35/23
f 18/20/24 4/19/24 24/46/24 56/36/24
f 56/36/25 24/46/25 25/47/25 59/37/25
f 59/48/26 25/49/26 26/50/26 62/51/26
f 62/51/27 26/50/27 8/52/27 27/53/27
f 61/39/28 62/42/28 27/54/28 28/55/28
f 60/40/29 61/39/29 28/55/29 29/56/29
f 21/57/30 60/40/30 29/56/30 7/58/30
f 22/59/31 57/34/31 60/40/31 21/57/31
f 23/44/32 54/43/32 57/60/32 22/61/32
f 63/62/33 64/63/33 67/64/33 66/65/33
f 64/63/34 65/66/34 68/67/34 67/64/34
f 66/65/35 67/64/35 70/68/35 69/69/35
f 67/70/36 68/71/36 71/72/36 70/73/36
f 7/74/37 29/75/37 63/62/37 32/76/37
f 29/75/38 28/77/38 64/63/38 63/62/38
f 28/77/39 27/78/39 65/66/39 64/63/39
f 27/53/40 8/52/40 33/79/40 65/80/40
f 65/80/41 33/79/41 34/81/41 68/71/41
f 68/71/42 34/81/42 35/82/42 71/72/42
f 71/72/43 35/82/43 6/83/43 36/84/43
f 70/68/44 71/85/44 36/86/44 37/87/44
f 69/69/45 70/68/45 37/87/45 38/88/45
f 30/89/46 69/69/46 38/88/46 5/90/46
f 31/91/47 66/65/47 69/69/47 30/89/47
f 32/76/48 63/62/48 66/65/48 31/91/48
f 72/92/49 73/93/49 76/94/49 75/95/49
f 73/93/50 74/96/50 77/97/50 76/94/50
f 75/95/51 76/94/51 79/98/51 78/99/51
f 76/94/52 77/97/52 80/100/52 79/98/52
f 5/90/53 38/88/53 72/101/53 41/102/53
f 38/88/54 37/87/54 73/103/54 72/101/54
f 37/87/55 36/86/55 74/104/55 73/103/55
f 36/84/56 6/83/56 42/105/56 74/106/56
f 74/96/57 42/107/57 43/108/57 77/97/57
f 77/97/58 43/108/58 44/109/58 80/100/58
f 80/100/59 44/109/59 2/110/59 14/111/59
f 79/98/60 80/100/60 14/111/60 13/112/60
f 78/99/61 79/98/61 13/112/61 12/113/61
f 39/114/62 78/115/62 12/116/62 1/117/62
f 40/118/63 75/119/63 78/115/63 39/114/63
f 41/102/64 72/101/64 75/120/64 40/121/64
f 81/122/65 82/123/65 85/124/65 84/125/65
f 82/126/66 83/127/66 86/128/66 85/129/66
f 84/125/67 85/124/67 88/130/67 87/131/67
f 85/129/68 86/128/68 89/132/68 88/133/68
f 3/26/69 23/44/69 81/122/69 9/23/69
f 23/44/70 22/61/70 82/123/70 81/122/70
f 22/61/71 21/134/71 83/135/71 82/123/71
f 21/136/72 7/74/72 32/76/72 83/127/72
f 83/127/73 32/76/73 31/91/73 86/128/73
f 86/128/74 31/91/74 30/89/74 89/132/74
f 89/132/75 30/89/75 5/90/75 41/102/75
f 88/133/76 89/132/76 41/102/76 40/121/76
f 87/131/77 88/130/77 40/118/77 39/114/77
f 11/29/78 87/131/78 39/114/78 1/117/78
f 10/27/79 84/125/79 87/131/79 11/29/79
f 9/23/80 81/122/80 84/125/80 10/27/80
f 90/137/81 91/138/81 94/139/81 93/140/81
f 91/138/82 92/141/82 95/142/82 94/139/82
f 93/140/83 94/139/83 97/143/83 96/144/83
f 94/139/84 95/142/84 98/145/84 97/143/84
f 8/52/85 26/50/85 90/137/85 33/79/85
f 26/50/86 25/49/86 91/138/86 90/137/86
f 25/49/87 24/146/87 92/141/87 91/138/87
f 24/147/88 4/148/88 17/149/88 92/150/88
f 92/151/89 17/18/89 16/17/89 95/152/89
f 95/152/90 16/17/90 15/16/90 98/153/90
f 98/153/91 15/16/91 2/15/91 44/154/91
f 97/143/92 98/145/92 44/155/92 43/156/92
f 96/144/93 97/143/93 43/156/93 42/105/93
f 35/82/94 96/144/94 42/105/94 6/83/94
f 34/81/95 93/140/95 96/144/95 35/82/95
f 33/79/96 90/137/96 93/140/96 34/81/96
