# Blender v3.1.2 OBJ File: 'kitai.blend'
# www.blender.org
mtllib concrete.mtl
o Cube
v -11.374939 -2.055579 28.837223
v -11.374939 -0.055579 28.837223
v -11.374939 -2.055579 -11.630569
v -11.374939 -0.055579 -11.630569
v 11.374939 -2.055579 28.837223
v 11.374939 -0.055579 28.837223
v 11.374939 -2.055579 -11.630569
v 11.371389 -0.045077 -11.630571
v 11.367833 -0.034580 28.837221
v 9.367833 -0.034580 28.837221
v 9.367838 -0.034575 -11.630574
v 11.367833 22.715300 28.837223
v 9.367833 22.715300 28.837223
v 11.367838 22.715303 -11.630569
v 9.367838 22.715303 -11.630569
vt 0.271974 0.438624
vt 0.231976 0.478622
vt 0.231976 0.438624
vt 0.271974 0.478622
vt 0.231976 0.518620
vt 0.271974 0.558617
vt 0.231976 0.558617
vt 0.231976 0.598615
vt 1.000000 1.000000
vt 0.000000 0.000000
vt 0.000000 1.000000
vt 1.000000 1.000000
vt 0.000000 0.000000
vt 1.000000 0.000000
vt 0.231976 0.438624
vt 0.271974 0.478622
vt 0.231976 0.478622
vt 0.231976 0.518620
vt 0.271974 0.518620
vt 0.231976 0.558617
vt 0.271974 0.558617
vt 0.231976 0.598615
vt 1.000000 1.000000
vt 0.000000 0.000000
vt 0.000000 1.000000
vt 0.000000 1.000000
vt 1.000000 0.000000
vt 1.000000 1.000000
vt 0.271974 0.518620
vt 0.271974 0.598615
vt 1.000000 0.000000
vt 0.000000 1.000000
vt 0.271974 0.438624
vt 0.271974 0.598615
vt 1.000000 0.000000
vt 0.000000 0.000000
vn -1.0000 0.0000 0.0000
vn 0.0000 0.0000 -1.0000
vn 1.0000 0.0000 0.0000
vn 0.0000 0.0000 1.0000
vn 0.0000 -1.0000 0.0000
vn 0.0000 1.0000 0.0003
vn -0.0052 -1.0000 0.0003
vn 0.0000 1.0000 0.0000
vn 1.0000 0.0002 0.0001
vn 1.0000 0.0018 -0.0001
vn -0.0005 1.0000 0.0000
usemtl Material.002
s off
f 2/1/1 3/2/1 1/3/1
f 4/4/2 7/5/2 3/2/2
f 7/5/3 6/6/3 5/7/3
f 6/6/4 1/8/4 5/7/4
f 7/9/5 1/10/5 3/11/5
f 8/12/6 2/13/6 6/14/6
f 9/15/7 11/16/7 8/17/7
f 11/16/2 14/18/2 8/17/2
f 15/19/8 12/20/8 14/18/8
f 13/21/4 9/22/4 12/20/4
f 14/23/9 9/24/9 8/25/9
f 11/26/1 13/27/1 15/28/1
f 2/1/1 4/4/1 3/2/1
f 4/4/2 8/29/2 7/5/2
f 7/5/10 8/29/10 6/6/10
f 6/6/4 2/30/4 1/8/4
f 7/9/5 5/31/5 1/10/5
f 8/12/11 4/32/11 2/13/11
f 9/15/5 10/33/5 11/16/5
f 11/16/2 15/19/2 14/18/2
f 15/19/8 13/21/8 12/20/8
f 13/21/4 10/34/4 9/22/4
f 14/23/3 12/35/3 9/24/3
f 11/26/1 10/36/1 13/27/1
