# Blender v3.1.2 OBJ File: 'curve.blend'
# www.blender.org
mtllib ground.mtl
o Plane
v 79.619583 -0.000003 79.619583
v -79.619583 0.000003 -79.619583
v -79.619583 -0.000003 79.619583
v 79.619583 0.000003 -79.619583
vt 0.898494 0.069758
vt 0.101506 0.866746
vt 0.101506 0.069758
vt 0.898494 0.866746
vn 0.0000 1.0000 0.0000
usemtl Material
s off
f 1/1/1 2/2/1 3/3/1
f 1/1/1 4/4/1 2/2/1
o NurbsPath
v -2.000000 0.000000 0.000000
v -1.914894 0.000000 0.000000
v -1.829787 0.000000 0.000000
v -1.744681 0.000000 0.000000
v -1.659575 0.000000 0.000000
v -1.574468 0.000000 0.000000
v -1.489362 0.000000 0.000000
v -1.404255 0.000000 0.000000
v -1.319149 0.000000 0.000000
v -1.234043 0.000000 0.000000
v -1.148936 0.000000 0.000000
v -1.063830 0.000000 0.000000
v -0.978723 0.000000 0.000000
v -0.893617 0.000000 0.000000
v -0.808511 0.000000 0.000000
v -0.723404 0.000000 0.000000
v -0.638298 0.000000 0.000000
v -0.553192 0.000000 0.000000
v -0.468085 0.000000 0.000000
v -0.382979 0.000000 0.000000
v -0.297872 0.000000 0.000000
v -0.212766 0.000000 0.000000
v -0.127660 0.000000 0.000000
v -0.042553 0.000000 0.000000
v 0.042553 0.000000 0.000000
v 0.127660 0.000000 0.000000
v 0.212766 0.000000 0.000000
v 0.297872 0.000000 0.000000
v 0.382979 0.000000 0.000000
v 0.468085 0.000000 0.000000
v 0.553191 0.000000 0.000000
v 0.638298 0.000000 0.000000
v 0.723404 0.000000 0.000000
v 0.808511 0.000000 0.000000
v 0.893617 0.000000 0.000000
v 0.978723 0.000000 0.000000
v 1.063830 0.000000 0.000000
v 1.148936 0.000000 0.000000
v 1.234042 0.000000 0.000000
v 1.319149 0.000000 0.000000
v 1.404255 0.000000 0.000000
v 1.489362 0.000000 0.000000
v 1.574468 0.000000 0.000000
v 1.659574 0.000000 0.000000
v 1.744681 0.000000 0.000000
v 1.829787 0.000000 0.000000
v 1.914893 0.000000 0.000000
v 2.000000 0.000000 0.000000
l 5 6
l 6 7
l 7 8
l 8 9
l 9 10
l 10 11
l 11 12
l 12 13
l 13 14
l 14 15
l 15 16
l 16 17
l 17 18
l 18 19
l 19 20
l 20 21
l 21 22
l 22 23
l 23 24
l 24 25
l 25 26
l 26 27
l 27 28
l 28 29
l 29 30
l 30 31
l 31 32
l 32 33
l 33 34
l 34 35
l 35 36
l 36 37
l 37 38
l 38 39
l 39 40
l 40 41
l 41 42
l 42 43
l 43 44
l 44 45
l 45 46
l 46 47
l 47 48
l 48 49
l 49 50
l 50 51
l 51 52
