# Blender v3.1.2 OBJ File: ''
# www.blender.org
mtllib HP_bar.mtl
o Plane
v -1.777500 0.071186 -0.000000
v -0.000000 0.094914 -0.000000
v -1.777500 -0.071186 0.000000
v -0.000000 -0.094914 0.000000
v -1.755000 0.094914 -0.000000
v -1.755000 -0.094914 0.000000
v -1.800000 -0.047457 0.000000
v -0.000000 -0.047457 0.000000
v -1.755000 -0.047457 0.000000
v -1.800000 0.047457 -0.000000
v -0.000000 0.047457 -0.000000
v -1.755000 0.047457 -0.000000
vt 0.071236 0.149623
vt 0.089711 0.832858
vt 0.071235 0.832858
vt 0.080473 0.841617
vt 0.034284 0.832858
vt 0.071235 0.850377
vt 0.034284 0.850377
vt 0.034285 0.149623
vt 0.015810 0.149623
vt 0.015809 0.832857
vt 0.025047 0.841617
vt 0.089711 0.149623
vn 0.0000 -0.0000 -1.0000
usemtl Material.002
s off
f 8/1/1 6/2/1 9/3/1
f 3/4/1 9/3/1 6/2/1
f 12/5/1 7/6/1 10/7/1
f 11/8/1 9/3/1 12/5/1
f 2/9/1 12/5/1 5/10/1
f 1/11/1 12/5/1 10/7/1
f 8/1/1 4/12/1 6/2/1
f 3/4/1 7/6/1 9/3/1
f 12/5/1 9/3/1 7/6/1
f 11/8/1 8/1/1 9/3/1
f 2/9/1 11/8/1 12/5/1
f 1/11/1 5/10/1 12/5/1
